<svg class="svg-icon" style="width: 1em; height: 1em;vertical-align: middle;fill: currentColor;overflow: hidden;" viewBox="0 0 1024 1024" version="1.1" xmlns="http://www.w3.org/2000/svg"><path d="M313.078519 621.89037m9.481481 0l384.284444 0q9.481481 0 9.481482 9.481482l0 37.925926q0 9.481481-9.481482 9.481481l-384.284444 0q-9.481481 0-9.481481-9.481481l0-37.925926q0-9.481481 9.481481-9.481482Z" fill="#0097FF" /><path d="M540.254815 438.518519m0 9.481481l0 208.592593q0 9.481481-9.481482 9.481481l-37.925926 0q-9.481481 0-9.481481-9.481481l0-208.592593q0-9.481481 9.481481-9.481481l37.925926 0q9.481481 0 9.481482 9.481481Z" fill="#0097FF" /><path d="M232.391111 591.265185a56.888889 56.888889 0 0 1 55.656296 57.552593 54.708148 54.708148 0 0 1-55.656296 57.552592 56.225185 56.225185 0 0 1-57.552592-57.552592 58.311111 58.311111 0 0 1 57.552592-57.552593m0-56.888889a115.2 115.2 0 0 0-114.441481 114.441482A113.777778 113.777778 0 0 0 232.391111 763.259259a111.786667 111.786667 0 0 0 112.45037-114.441481 113.777778 113.777778 0 0 0-112.45037-114.441482zM263.395556 826.88a74.808889 74.808889 0 0 1 42.287407 11.472593l1.422222 1.042963 1.517037 0.948148a87.04 87.04 0 0 1 40.106667 64.474074 673.185185 673.185185 0 0 1-84.29037 3.223703h-66.370371a650.998519 650.998519 0 0 1-84.29037-3.602962 89.979259 89.979259 0 0 1 39.727407-66.370371 82.014815 82.014815 0 0 1 43.614815-11.472592h66.37037m0-56.888889h-66.37037a137.481481 137.481481 0 0 0-75.851852 21.333333A146.678519 146.678519 0 0 0 56.888889 912.497778v8.722963c0 42.666667 62.103704 43.614815 141.558518 43.614815h66.370371c79.454815 0 141.558519 0 141.558518-43.614815v-8.722963a142.885926 142.885926 0 0 0-66.844444-120.225185 130.844444 130.844444 0 0 0-75.851852-22.281482zM793.505185 591.265185a56.888889 56.888889 0 0 1 55.656296 57.552593 54.708148 54.708148 0 0 1-55.656296 57.552592 56.225185 56.225185 0 0 1-57.552592-57.552592 58.311111 58.311111 0 0 1 57.552592-57.552593m0-56.888889a115.2 115.2 0 0 0-114.346666 114.441482A113.777778 113.777778 0 0 0 793.505185 763.259259a111.786667 111.786667 0 0 0 112.545185-114.441481 113.777778 113.777778 0 0 0-112.545185-114.441482zM824.888889 826.88a74.808889 74.808889 0 0 1 42.287407 11.472593l1.422223 1.042963 1.517037 0.948148a87.04 87.04 0 0 1 40.106666 64.474074 673.185185 673.185185 0 0 1-84.29037 3.223703h-66.370371a650.998519 650.998519 0 0 1-84.29037-3.602962 89.979259 89.979259 0 0 1 39.727408-66.370371A82.014815 82.014815 0 0 1 758.518519 826.88h66.37037m0-56.888889h-66.37037a137.481481 137.481481 0 0 0-75.851852 21.333333 146.678519 146.678519 0 0 0-64.948148 121.173334v8.722963c0 42.666667 62.103704 43.614815 141.558518 43.614815h66.37037c79.454815 0 141.558519 0 141.558519-43.614815v-8.722963a142.885926 142.885926 0 0 0-66.844445-120.225185 130.844444 130.844444 0 0 0-75.851851-22.281482zM512.663704 115.958519a56.888889 56.888889 0 0 1 55.656296 57.552592 54.708148 54.708148 0 0 1-55.656296 57.552593A56.225185 56.225185 0 0 1 455.111111 173.511111a58.311111 58.311111 0 0 1 57.552593-57.552592m0-56.888889A115.2 115.2 0 0 0 398.222222 173.511111a113.777778 113.777778 0 0 0 114.441482 114.441482A111.786667 111.786667 0 0 0 625.208889 173.511111 113.777778 113.777778 0 0 0 512.663704 59.06963zM543.762963 351.573333a74.808889 74.808889 0 0 1 42.287407 11.472593l1.422223 1.042963 1.517037 0.948148a87.04 87.04 0 0 1 40.106666 64.474074 673.185185 673.185185 0 0 1-84.29037 3.223704h-66.37037a651.093333 651.093333 0 0 1-84.290371-3.602963 89.979259 89.979259 0 0 1 39.727408-66.370371 82.014815 82.014815 0 0 1 43.614814-11.472592h66.370371m0-56.888889h-66.370371a137.481481 137.481481 0 0 0-75.851851 21.333333 146.678519 146.678519 0 0 0-64.948149 121.173334V445.62963c0 42.666667 62.103704 43.614815 141.558519 43.614814h66.37037c79.454815 0 141.558519 0 141.558519-43.614814v-8.722963a142.885926 142.885926 0 0 0-66.844445-120.225186 130.74963 130.74963 0 0 0-75.851851-22.281481z" fill="#0097FF" /></svg>